<?xml version="1.0" standalone="no"?>
<!DOCTYPE svg PUBLIC "-//W3C//DTD SVG 20010904//EN"
 "http://www.w3.org/TR/2001/REC-SVG-20010904/DTD/svg10.dtd">
<svg version="1.0" xmlns="http://www.w3.org/2000/svg"
 width="319.000000pt" height="306.000000pt" viewBox="0 0 319.000000 306.000000"
 preserveAspectRatio="xMidYMid meet">

<g transform="translate(0.000000,306.000000) scale(0.100000,-0.100000)"
fill="#000000" stroke="none">
<path d="M1648 2993 c6 -2 18 -2 25 0 6 3 1 5 -13 5 -14 0 -19 -2 -12 -5z"/>
<path d="M1257 2979 c-21 -3 -43 -11 -50 -18 -6 -6 -27 -11 -47 -11 -44 0
-130 -28 -130 -42 0 -6 7 -8 15 -5 32 13 23 -13 -10 -27 -19 -8 -35 -17 -35
-20 0 -3 16 2 36 10 43 18 81 16 43 -3 -13 -6 -49 -19 -79 -28 -49 -14 -82
-30 -231 -107 -20 -10 -54 -34 -75 -54 -21 -19 -50 -37 -64 -41 -13 -3 -47
-31 -75 -62 -27 -31 -66 -72 -86 -91 -20 -19 -48 -57 -64 -83 -24 -41 -85 -92
-85 -70 0 17 -58 -104 -65 -134 -8 -40 2 -42 32 -5 17 21 25 24 31 14 7 -11
10 -10 15 3 4 9 3 13 -3 10 -20 -13 -9 12 21 44 23 26 33 31 39 21 6 -10 12
-4 23 21 8 19 26 45 41 58 14 14 26 29 26 35 1 12 50 52 50 41 0 -4 -20 -30
-44 -58 -92 -109 -206 -308 -245 -429 -14 -41 -22 -46 -41 -23 -8 10 -10 30
-5 61 6 45 6 45 -21 42 -23 -2 -30 -9 -35 -35 -3 -18 -12 -40 -19 -48 -13 -16
-30 -210 -20 -224 3 -3 17 -14 33 -24 15 -10 27 -24 27 -32 0 -8 5 -15 11 -15
9 0 10 -27 5 -96 -6 -76 -11 -99 -27 -115 -20 -20 -20 -21 -2 -34 12 -10 13
-14 5 -15 -8 0 -11 -7 -8 -17 3 -10 8 -35 10 -55 4 -28 2 -36 -8 -32 -8 3 -16
28 -20 57 -4 29 -9 72 -12 97 -6 43 -5 44 10 25 16 -19 16 -19 10 10 -4 17
-11 40 -15 53 -5 13 -9 37 -9 53 0 36 -17 38 -26 3 -9 -37 5 -275 21 -361 36
-188 155 -475 230 -553 23 -25 46 -55 50 -68 3 -12 15 -27 26 -32 10 -6 19
-17 19 -24 0 -12 33 -30 52 -27 3 0 11 -13 17 -30 6 -17 15 -28 21 -24 13 8
52 -19 42 -31 -4 -5 -3 -6 1 -2 18 14 75 -18 144 -83 40 -36 85 -70 100 -74
36 -9 155 -66 168 -80 10 -11 123 -43 175 -49 14 -2 32 -6 40 -9 8 -3 67 -11
130 -19 130 -15 328 -17 473 -5 67 6 97 5 97 -2 0 -6 -19 -11 -43 -11 -23 0
-58 -4 -77 -10 -19 -5 -109 -10 -200 -10 -209 -1 -367 18 -469 54 -24 9 -58
16 -75 15 -27 0 -23 -4 31 -25 35 -13 87 -28 115 -33 29 -5 87 -17 128 -26
103 -22 336 -22 465 -1 55 9 107 17 115 17 99 5 247 47 316 90 17 10 39 19 48
19 9 0 15 5 14 12 -2 6 6 14 17 16 11 2 29 12 40 22 11 9 58 43 105 75 47 32
99 69 115 82 83 67 109 82 153 88 66 8 76 16 85 66 5 24 17 53 28 65 10 11 29
49 40 85 12 35 26 70 32 76 5 7 7 19 4 27 -3 8 3 22 14 32 11 10 19 30 19 48
0 17 18 81 39 142 52 149 75 281 67 381 -3 43 -10 130 -15 193 -4 63 -13 129
-20 145 -7 17 -14 55 -16 85 -10 132 -54 292 -91 328 -13 13 -24 33 -24 45 -1
22 -6 32 -70 147 -19 34 -42 75 -51 91 -16 28 -33 31 -22 3 3 -8 1 -14 -5 -14
-5 0 -13 11 -16 25 -4 14 -11 25 -16 25 -6 0 -46 35 -89 78 -135 131 -180 172
-191 172 -5 0 -28 16 -50 36 -22 20 -43 35 -46 32 -2 -3 20 -24 51 -48 30 -23
55 -44 55 -46 0 -11 -62 12 -125 46 -38 21 -90 41 -114 45 -24 4 -58 15 -75
25 -38 22 -195 68 -256 76 -25 3 -54 7 -65 8 -11 2 -28 4 -37 5 -10 0 -16 7
-14 14 1 6 1 9 -1 5 -3 -5 -25 -8 -50 -8 -36 0 -44 3 -39 15 3 9 0 15 -9 15
-8 0 -15 -5 -15 -11 0 -7 -13 -9 -37 -5 -21 4 -58 9 -82 13 -50 6 -38 23 17
23 17 0 32 4 32 8 0 9 -218 10 -273 1z m888 -472 c209 -65 323 -180 355 -357
31 -172 -60 -454 -205 -632 -30 -38 -52 -68 -47 -69 4 -1 23 0 43 1 53 2 55
-13 5 -54 -150 -123 -379 -198 -645 -213 l-120 -6 -27 -116 c-14 -64 -45 -195
-68 -291 l-42 -175 -327 -3 -327 -2 5 22 c3 13 47 204 99 426 l93 402 -59 0
c-34 0 -58 4 -58 11 0 9 48 220 205 894 14 61 30 129 36 153 l12 43 491 -3
491 -4 90 -27z"/>
<path d="M1616 2052 c-6 -10 -86 -358 -86 -374 0 -17 72 -3 132 24 98 45 150
108 163 195 8 53 -20 102 -76 130 -50 25 -124 39 -133 25z"/>
<path d="M2231 2826 c2 -2 15 -9 29 -15 24 -11 24 -11 6 3 -16 13 -49 24 -35
12z"/>
<path d="M680 2733 c0 -5 -10 -15 -22 -21 -17 -8 -18 -11 -7 -11 19 -1 45 26
35 36 -3 3 -6 2 -6 -4z"/>
<path d="M554 2638 c-4 -6 -2 -14 4 -16 7 -2 9 -9 6 -15 -5 -8 -2 -8 6 0 8 7
15 20 16 28 3 18 -22 20 -32 3z"/>
<path d="M462 2533 c-61 -59 -99 -109 -89 -119 6 -6 120 106 144 142 29 45 7
35 -55 -23z"/>
<path d="M332 2369 c-19 -30 -8 -34 12 -4 9 14 13 25 9 25 -5 0 -14 -9 -21
-21z"/>
<path d="M3094 1545 c-3 -8 -4 -20 -2 -27 3 -7 7 -1 10 15 6 29 1 36 -8 12z"/>
<path d="M3111 1473 c-6 -12 -11 -34 -11 -49 0 -15 -5 -44 -11 -63 -7 -20 -14
-43 -16 -51 -4 -13 -5 -13 -13 0 -5 8 -7 24 -4 35 4 18 4 18 -6 3 -6 -10 -13
-55 -16 -100 -4 -55 -14 -102 -30 -140 -13 -32 -24 -68 -24 -81 0 -13 -7 -32
-15 -43 -8 -10 -15 -28 -15 -40 0 -11 -5 -25 -12 -32 -6 -6 -8 -15 -3 -19 4
-5 10 -2 12 5 8 23 33 13 33 -14 l0 -25 30 33 c16 18 37 55 45 83 9 27 22 61
29 75 8 14 19 50 25 80 7 30 18 66 24 79 9 18 9 25 1 28 -9 3 -8 11 1 31 7 15
17 53 20 84 6 47 4 59 -8 64 -9 3 -14 11 -11 18 3 7 1 23 -4 36 l-9 24 -12
-21z"/>
</g>
</svg>
